# xmcd
#
# Track frame offsets:
#	150
#	14587
#	32776
#	54701
#	75844
#	94247
#	111441
#	125793
#	143856
#	162717
#	177678
#	191007
#	206088
#	219840
#	234807
#	248898
#	269957
#	291334
#	311675
#
# Disc length: 4547 seconds
#
# Revision: 1
# Processed by: cddbd v1.5.2PL0 Copyright (c) Steve Scherf et al.
# Submitted via: audiograbber 1.83.01
#
DISCID=2c11c113
DTITLE=Various Artist - Heart Of The Country [Disc 1]
DYEAR=2015
DGENRE=Country
TTITLE0=Lee Kernaghan - Australian Boy
TTITLE1=James Blundell and James Reyne - Way Out West
TTITLE2=Beccy Cole - Blackwood Hill
TTITLE3=The Waifs - Fisherman's Daughter
TTITLE4=Luke O'Shea - Wayne and Wanita
TTITLE5=The Sunny Cowgirls - Green And Gold
TTITLE6=John Schumann and the Vagabond Crew - To An Old Mate
TTITLE7=Warren H. Williams - Dusty Ballerina
TTITLE8=Christine Anu - My Island Home
TTITLE9=Corey Colum - West Australian Woman
TTITLE10=Jayne Denham - Outlaw
TTITLE11=Troy Cassar-Daley - V8 Town
TTITLE12=McAlister Kemp - Country Proud
TTITLE13=Catfish - Charleville (2010 Remaster)
TTITLE14=Halfway - Dulcify
TTITLE15=Darren Coggan - It's A Sunburnt Country
TTITLE16=Neil Murray - Whispering Casuarina
TTITLE17=Tania Kernaghan - A Bushman Can't Survive
TTITLE18=John Butler Trio - Kimberley (Live)
EXTD=
EXTT0=Australian Country Music
EXTT1=
EXTT2=
EXTT3=
EXTT4=
EXTT5=
EXTT6=
EXTT7=
EXTT8=
EXTT9=
EXTT10=
EXTT11=
EXTT12=
EXTT13=
EXTT14=
EXTT15=
EXTT16=
EXTT17=
EXTT18=
PLAYORDER=
